<svg width="25" height="19" viewBox="0 0 25 19" fill="none" xmlns="http://www.w3.org/2000/svg">
<path d="M24.3602 8.21126V8.85232C24.3602 9.38341 23.916 9.81392 23.368 9.81392H23.0373L21.9578 17.1376C21.8182 18.0851 20.981 18.7889 19.9935 18.7889H4.91553C3.92807 18.7889 3.09087 18.0851 2.95118 17.1376L1.87174 9.81392H1.54103C0.993077 9.81392 0.548889 9.38341 0.548889 8.85232V8.21126C0.548889 7.68017 0.993077 7.24965 1.54103 7.24965H4.32484L8.73902 1.36702C9.16874 0.794386 9.99601 0.667736 10.5869 1.08423C11.1778 1.50072 11.3084 2.30258 10.8787 2.87525L7.59624 7.24965H17.3128L14.0304 2.87521C13.6007 2.30258 13.7313 1.50068 14.3222 1.08419C14.913 0.667695 15.7404 0.794306 16.1701 1.36698L20.5842 7.24965H23.368C23.916 7.24965 24.3602 7.68017 24.3602 8.21126ZM13.4467 15.263V10.7755C13.4467 10.2444 13.0025 9.81392 12.4545 9.81392C11.9066 9.81392 11.4624 10.2444 11.4624 10.7755V15.263C11.4624 15.7941 11.9066 16.2246 12.4545 16.2246C13.0025 16.2246 13.4467 15.7941 13.4467 15.263ZM18.0766 15.263V10.7755C18.0766 10.2444 17.6324 9.81392 17.0845 9.81392C16.5366 9.81392 16.0924 10.2444 16.0924 10.7755V15.263C16.0924 15.7941 16.5366 16.2246 17.0845 16.2246C17.6324 16.2246 18.0766 15.7941 18.0766 15.263ZM8.81669 15.263V10.7755C8.81669 10.2444 8.37251 9.81392 7.82456 9.81392C7.27661 9.81392 6.83242 10.2444 6.83242 10.7755V15.263C6.83242 15.7941 7.27661 16.2246 7.82456 16.2246C8.37251 16.2246 8.81669 15.7941 8.81669 15.263Z" fill="black"/>
</svg>
