<svg width="17" height="19" viewBox="0 0 17 19" fill="none" xmlns="http://www.w3.org/2000/svg">
<path d="M8.31362 9.81387C10.871 9.81387 12.9436 7.80501 12.9436 5.32637C12.9436 2.84772 10.871 0.838867 8.31362 0.838867C5.75627 0.838867 3.68362 2.84772 3.68362 5.32637C3.68362 7.80501 5.75627 9.81387 8.31362 9.81387ZM11.5546 10.9357H10.9506C10.1475 11.2933 9.25409 11.4967 8.31362 11.4967C7.37315 11.4967 6.48332 11.2933 5.67669 10.9357H5.07262C2.38867 10.9357 0.211121 13.0463 0.211121 15.6476V17.1061C0.211121 18.0351 0.988816 18.7889 1.94737 18.7889H14.6799C15.6384 18.7889 16.4161 18.0351 16.4161 17.1061V15.6476C16.4161 13.0463 14.2386 10.9357 11.5546 10.9357Z" fill="white"/>
</svg>
