<svg width="19" height="19" viewBox="0 0 19 19" fill="none" xmlns="http://www.w3.org/2000/svg">
<path d="M18.345 16.3578L14.739 12.8628C14.5763 12.705 14.3556 12.6174 14.1242 12.6174H13.5346C14.5329 11.38 15.126 9.82351 15.126 8.13034C15.126 4.1025 11.7588 0.838867 7.60302 0.838867C3.44727 0.838867 0.0800018 4.1025 0.0800018 8.13034C0.0800018 12.1582 3.44727 15.4218 7.60302 15.4218C9.34995 15.4218 10.9558 14.8469 12.2326 13.8794V14.4508C12.2326 14.6751 12.323 14.889 12.4857 15.0467L16.0917 18.5417C16.4317 18.8712 16.9815 18.8712 17.3178 18.5417L18.3414 17.5497C18.6814 17.2201 18.6814 16.6873 18.345 16.3578ZM7.60302 12.6174C5.04592 12.6174 2.97347 10.6122 2.97347 8.13034C2.97347 5.65194 5.0423 3.64328 7.60302 3.64328C10.1601 3.64328 12.2326 5.64844 12.2326 8.13034C12.2326 10.6087 10.1637 12.6174 7.60302 12.6174Z" fill="black"/>
</svg>
