<svg width="47" height="36" viewBox="0 0 47 36" fill="none" xmlns="http://www.w3.org/2000/svg">
<path d="M46.2854 14.8004V16.0826C46.2854 17.1447 45.422 18.0058 44.3569 18.0058H43.714L41.6157 32.6532C41.3442 34.5481 39.7168 35.9557 37.7974 35.9557H8.48807C6.56859 35.9557 4.94121 34.5481 4.66968 32.6532L2.57141 18.0058H1.92856C0.863432 18.0058 0 17.1447 0 16.0826V14.8004C0 13.7383 0.863432 12.8772 1.92856 12.8772H7.33986L15.9203 1.11197C16.7556 -0.0332973 18.3637 -0.286599 19.5124 0.546388C20.6609 1.37937 20.9148 2.98308 20.0795 4.12843L13.699 12.8772H32.5865L26.2059 4.12835C25.3706 2.98308 25.6246 1.37929 26.7731 0.546308C27.9215 -0.286679 29.5299 -0.0334576 30.3652 1.11189L38.9456 12.8772H44.3569C45.422 12.8772 46.2854 13.7383 46.2854 14.8004ZM25.0713 28.9039V19.929C25.0713 18.8668 24.2078 18.0058 23.1427 18.0058C22.0776 18.0058 21.2142 18.8668 21.2142 19.929V28.9039C21.2142 29.9661 22.0776 30.8271 23.1427 30.8271C24.2078 30.8271 25.0713 29.9661 25.0713 28.9039ZM34.0712 28.9039V19.929C34.0712 18.8668 33.2078 18.0058 32.1427 18.0058C31.0775 18.0058 30.2141 18.8668 30.2141 19.929V28.9039C30.2141 29.9661 31.0775 30.8271 32.1427 30.8271C33.2078 30.8271 34.0712 29.9661 34.0712 28.9039ZM16.0713 28.9039V19.929C16.0713 18.8668 15.2079 18.0058 14.1428 18.0058C13.0776 18.0058 12.2142 18.8668 12.2142 19.929V28.9039C12.2142 29.9661 13.0776 30.8271 14.1428 30.8271C15.2079 30.8271 16.0713 29.9661 16.0713 28.9039Z" fill="white"/>
</svg>
